<svg xmlns="http://www.w3.org/2000/svg" viewBox="0 0 48 48"><defs><style>.cls-1{fill:#e14e42;}.cls-2{fill:#fff;}</style></defs><g id="Layer_2" data-name="Layer 2"><g id="Icons"><rect class="cls-1" width="48" height="48"/><path class="cls-2" d="M33.52,23.3h-19A5.49,5.49,0,0,0,9,28.79v4.4a5.48,5.48,0,0,0,5.48,5.48h19A5.48,5.48,0,0,0,39,33.19v-4.4A5.48,5.48,0,0,0,33.52,23.3Zm-15,3.43H16.71v8.8H15v-8.8H13.23V25.24h5.25Zm5,8.8H22V34.7a3.23,3.23,0,0,1-.87.7,1.88,1.88,0,0,1-.88.24.92.92,0,0,1-.79-.34,1.58,1.58,0,0,1-.27-1V27.94h1.52v5.82a.66.66,0,0,0,.09.39.39.39,0,0,0,.31.12.88.88,0,0,0,.43-.16,1.92,1.92,0,0,0,.46-.4V27.94h1.52ZM29,34a1.89,1.89,0,0,1-.36,1.24,1.24,1.24,0,0,1-1,.43,1.8,1.8,0,0,1-.79-.17,2,2,0,0,1-.65-.51v.58H24.62V25.24h1.54v3.31a2.19,2.19,0,0,1,.65-.52,1.38,1.38,0,0,1,.7-.18,1.32,1.32,0,0,1,1.1.48A2.29,2.29,0,0,1,29,29.75Zm5.26-2h-2.9v1.43a1.65,1.65,0,0,0,.15.83.57.57,0,0,0,.51.23.62.62,0,0,0,.53-.2,1.6,1.6,0,0,0,.15-.86V33h1.56v.39a2.45,2.45,0,0,1-.57,1.76,2.28,2.28,0,0,1-1.7.59,2.09,2.09,0,0,1-1.61-.63,2.4,2.4,0,0,1-.58-1.72V30a2.12,2.12,0,0,1,.64-1.61,2.3,2.3,0,0,1,1.66-.62,2.13,2.13,0,0,1,1.6.57A2.27,2.27,0,0,1,34.25,30Z"/><path class="cls-2" d="M32,29.08a.58.58,0,0,0-.52.21,1.08,1.08,0,0,0-.16.68v.76h1.34V30a1.08,1.08,0,0,0-.16-.68A.55.55,0,0,0,32,29.08Z"/><path class="cls-2" d="M26.79,29.05a.77.77,0,0,0-.32.07,1.08,1.08,0,0,0-.31.24v4.73a1.41,1.41,0,0,0,.36.27.9.9,0,0,0,.36.08.5.5,0,0,0,.41-.16.82.82,0,0,0,.14-.53V29.83a.93.93,0,0,0-.16-.58A.6.6,0,0,0,26.79,29.05Z"/><polygon class="cls-2" points="14.69 9.33 16.98 16.18 16.98 20.67 18.9 20.67 18.9 15.96 21.14 9.33 19.18 9.33 17.99 13.86 17.87 13.86 16.62 9.33 14.69 9.33"/><path class="cls-2" d="M22,12.67a1.92,1.92,0,0,0-.68,1.54v4.34a2.21,2.21,0,0,0,.67,1.7,2.52,2.52,0,0,0,1.79.63,2.58,2.58,0,0,0,1.83-.61,2.2,2.2,0,0,0,.67-1.69V14.26a2,2,0,0,0-.68-1.56,2.48,2.48,0,0,0-1.74-.61A2.8,2.8,0,0,0,22,12.67Zm2.54,1.48v4.56a.69.69,0,0,1-.21.53.77.77,0,0,1-.55.19.67.67,0,0,1-.52-.19.72.72,0,0,1-.18-.53V14.15a.55.55,0,0,1,.19-.44.77.77,0,0,1,.51-.17.88.88,0,0,1,.55.17A.54.54,0,0,1,24.5,14.15Z"/><path class="cls-2" d="M32.5,20.67V12.3H30.79v6.35a2.26,2.26,0,0,1-.53.45,1,1,0,0,1-.47.18.41.41,0,0,1-.35-.14.66.66,0,0,1-.11-.42V12.3H27.62v7a1.74,1.74,0,0,0,.3,1.12,1.08,1.08,0,0,0,.89.38,2.08,2.08,0,0,0,1-.27,3.54,3.54,0,0,0,1-.78v.93Z"/></g></g></svg>