<svg xmlns="http://www.w3.org/2000/svg" viewBox="0 0 48 48"><defs><style>.cls-1{fill:#2daae1;}.cls-2{fill:#fff;}</style></defs><g id="Layer_2" data-name="Layer 2"><g id="Icons"><rect class="cls-1" width="48" height="48"/><path class="cls-2" d="M38.17,12.26a12.24,12.24,0,0,1-3.91,1.49A6.15,6.15,0,0,0,23.62,18a6,6,0,0,0,.16,1.41,17.49,17.49,0,0,1-12.69-6.43A6.08,6.08,0,0,0,10.26,16,6.15,6.15,0,0,0,13,21.15a6.12,6.12,0,0,1-2.78-.77v.08a6.17,6.17,0,0,0,4.93,6,6.15,6.15,0,0,1-1.62.21,6.34,6.34,0,0,1-1.16-.11,6.18,6.18,0,0,0,5.75,4.28,12.33,12.33,0,0,1-7.64,2.63A11.84,11.84,0,0,1,9,33.42a17.39,17.39,0,0,0,9.44,2.77C29.76,36.19,36,26.81,36,18.68c0-.27,0-.54,0-.8A12.42,12.42,0,0,0,39,14.69a12.31,12.31,0,0,1-3.53,1A6.14,6.14,0,0,0,38.17,12.26Z"/></g></g></svg>